<?xml version="1.0" encoding="UTF-8"?>
<svg xmlns="http://www.w3.org/2000/svg" width="1400" height="1980" viewBox="0 0 1400 1980" role="img" aria-labelledby="title desc">
  <title id="title">正德十四年宁王之乱战役路线</title>
  <desc id="desc">宁王之乱战役路线、可定位地点及黄家渡、八字脑、阮子江的不确定性分层地图。</desc>
  <defs>
    <pattern id="range-hatch" width="12" height="12" patternUnits="userSpaceOnUse" patternTransform="rotate(35)"><line x1="0" y1="0" x2="0" y2="12" stroke="#a45a3a" stroke-width="3" opacity=".28"/></pattern>
    <pattern id="hypothesis-hatch" width="14" height="14" patternUnits="userSpaceOnUse" patternTransform="rotate(-35)"><line x1="0" y1="0" x2="0" y2="14" stroke="#826d91" stroke-width="3" opacity=".24"/></pattern>
    <marker id="arrow-rebel" viewBox="0 0 10 10" refX="8" refY="5" markerWidth="8" markerHeight="8" orient="auto-start-reverse"><path d="M0,0 L10,5 L0,10 Z" fill="#9d3b2e"/></marker>
    <marker id="arrow-return" viewBox="0 0 10 10" refX="8" refY="5" markerWidth="8" markerHeight="8" orient="auto-start-reverse"><path d="M0,0 L10,5 L0,10 Z" fill="#c0603d"/></marker>
    <marker id="arrow-government" viewBox="0 0 10 10" refX="8" refY="5" markerWidth="8" markerHeight="8" orient="auto-start-reverse"><path d="M0,0 L10,5 L0,10 Z" fill="#315f73"/></marker>
    <marker id="arrow-sequence" viewBox="0 0 10 10" refX="8" refY="5" markerWidth="7" markerHeight="7" orient="auto"><path d="M0,0 L10,5 L0,10 Z" fill="#8f755e"/></marker>
    <style><![CDATA[
      svg{background:#f5f0e5;color:#26231e;font-family:"Noto Serif CJK SC","Source Han Serif SC","Songti SC",serif}
      .frame{fill:#f8f4ea;stroke:#aa9d86;stroke-width:1.5}
      .grid{stroke:#c8bdab;stroke-width:1;stroke-dasharray:4 8;opacity:.45}
      .lake{fill:#c8dde0;stroke:#78a2a9;stroke-width:1.3;fill-rule:evenodd}
      .route{fill:none;stroke-width:6;stroke-linecap:round;stroke-linejoin:round}
      .route.rebel{stroke:#9d3b2e}.route.return{stroke:#c0603d;stroke-dasharray:16 10}.route.government{stroke:#315f73}
      .place circle{fill:#f8f4ea;stroke:#332d27;stroke-width:3}.place.battle circle{fill:#9d3b2e}.place.siege circle{fill:#9d3b2e}.place.assembly circle{fill:#315f73}
      .place-label{font-size:24px;font-weight:650;paint-order:stroke;stroke:#f8f4ea;stroke-width:7;stroke-linejoin:round}.detail-label{font-size:27px}
      .range{fill:url(#range-hatch);stroke:#a45a3a;stroke-width:3;stroke-dasharray:9 7}.hypothesis{fill:url(#hypothesis-hatch);stroke:#826d91;stroke-width:3;stroke-dasharray:4 8}
      .sequence{fill:none;stroke:#8f755e;stroke-width:4;stroke-dasharray:8 7}
      .battle-number{fill:#9d3b2e;stroke:#f8f4ea;stroke-width:4}.battle-number-text{fill:white;font-family:system-ui,sans-serif;font-size:20px;font-weight:800;text-anchor:middle;dominant-baseline:central}
      .small{font-size:20px}.tiny{font-size:17px}.muted{fill:#6f6659}.panel-title{font-size:28px;font-weight:700;letter-spacing:.08em}.legend-line{stroke-width:6}
    ]]></style>
  </defs>

  <rect width="1400" height="1980" fill="#f5f0e5"/>
  <text x="72" y="92" font-size="52" font-weight="750" letter-spacing=".04em">正德十四年宁王之乱战役路线</text>
  <text x="74" y="142" font-size="25" fill="#655c50">1519｜史料定位、现代坐标与不确定性分层图</text>
  <line x1="72" y1="178" x2="1328" y2="178" stroke="#51483d" stroke-width="2"/>

  <text class="panel-title" x="72" y="214">一　区域战役路线</text>
  <rect class="frame" x="72" y="230" width="1256" height="870"/>
  <svg x="72" y="230" width="1256" height="870" viewBox="0 0 1256 870" overflow="hidden">
    <rect width="1256" height="870" fill="#f8f4ea"/>
    <g transform="translate(-72 -230)">
      <path class="lake" d="M573.2,695.4 L574.2,697.2 L574.9,692.3 L576.8,692.1 L578.8,696.6 L575.2,700.4 L577.7,701.3 L579.4,699.6 L578.7,698.0 L581.7,692.8 L578.9,693.6 L579.5,690.6 L581.6,690.4 L579.9,688.4 L583.6,684.2 L582.6,684.9 L584.5,685.2 L581.6,691.6 L582.3,695.1 L585.2,693.7 L593.1,696.9 L589.3,696.0 L588.8,699.5 L587.1,700.1 L588.4,702.0 L585.1,703.5 L587.0,712.7 L595.2,716.7 L590.9,723.1 L597.1,725.8 L597.4,728.9 L600.3,730.1 L596.4,735.6 L602.3,735.0 L602.8,731.4 L607.4,732.6 L614.5,729.3 L617.9,729.1 L619.6,732.3 L621.8,732.5 L623.1,731.7 L622.5,728.2 L628.9,726.3 L634.5,730.9 L634.4,733.7 L638.6,735.0 L642.6,741.7 L648.0,737.2 L653.6,738.5 L655.2,746.2 L654.3,750.5 L661.5,758.0 L659.8,762.5 L660.3,768.3 L661.7,768.6 L662.8,758.3 L665.1,756.7 L675.9,756.4 L677.9,758.1 L673.5,765.4 L673.3,772.1 L665.5,774.5 L666.8,774.3 L663.8,778.3 L662.2,787.9 L659.5,791.5 L660.9,792.9 L665.0,788.6 L674.5,784.6 L686.0,784.2 L687.1,786.6 L683.8,793.9 L675.7,796.3 L673.1,800.8 L675.1,805.7 L673.2,806.7 L674.1,813.8 L672.4,817.7 L692.2,816.7 L693.0,822.2 L698.3,821.9 L704.1,828.5 L704.9,835.6 L695.2,841.5 L696.9,847.3 L695.9,850.9 L692.9,856.4 L689.3,858.6 L690.5,864.7 L693.2,867.4 L691.2,872.8 L687.2,874.5 L688.8,877.2 L701.9,872.7 L705.0,869.1 L711.1,868.6 L711.0,865.0 L713.8,864.2 L712.0,857.8 L715.4,857.0 L712.2,855.2 L713.2,852.1 L710.1,851.3 L710.2,848.9 L712.5,848.9 L720.7,856.3 L722.2,855.7 L721.1,850.4 L719.5,851.9 L718.8,848.4 L717.0,848.1 L718.0,846.9 L715.4,846.7 L717.2,840.8 L718.6,839.6 L729.0,842.0 L721.2,835.2 L723.3,832.3 L722.2,828.5 L726.4,828.4 L722.5,826.8 L720.9,821.6 L722.8,818.1 L721.4,814.4 L725.2,811.0 L728.1,796.6 L735.1,784.5 L759.2,780.3 L780.8,788.9 L783.5,791.5 L785.8,798.7 L789.4,788.7 L791.7,786.6 L797.6,786.5 L804.7,794.7 L804.2,800.1 L812.5,802.2 L817.3,810.3 L820.3,811.8 L817.8,807.0 L820.1,803.6 L818.2,800.2 L820.2,795.7 L819.0,791.7 L820.2,782.5 L814.1,780.5 L810.4,775.5 L808.9,771.2 L810.9,763.7 L805.1,759.1 L799.9,760.0 L796.2,757.5 L794.5,752.5 L795.9,744.4 L785.1,749.3 L781.7,747.5 L780.5,737.8 L775.9,730.0 L776.1,725.3 L769.7,714.5 L774.8,712.4 L786.1,703.1 L793.4,700.5 L798.8,688.5 L803.3,686.5 L803.4,684.0 L809.8,676.1 L809.6,671.2 L815.7,672.8 L818.6,669.1 L823.6,668.0 L828.2,661.6 L829.3,655.6 L828.7,659.8 L825.0,665.1 L820.8,663.4 L821.1,657.1 L818.9,663.8 L816.6,663.9 L816.7,661.9 L811.8,663.1 L811.3,664.8 L809.7,662.8 L806.9,664.5 L801.6,663.1 L799.7,670.3 L788.7,665.9 L788.0,671.6 L776.6,679.3 L776.4,676.7 L778.3,676.6 L777.4,673.9 L775.0,674.5 L771.7,671.7 L773.5,675.7 L772.8,677.7 L771.1,677.5 L772.9,681.3 L770.5,685.8 L765.8,688.7 L766.1,682.3 L764.2,683.0 L761.9,678.0 L762.7,688.1 L760.7,690.9 L755.9,691.0 L753.0,678.2 L754.2,674.0 L751.9,674.4 L751.3,667.9 L749.8,670.1 L748.2,665.9 L745.8,665.2 L747.3,659.9 L744.7,658.8 L743.0,652.5 L740.3,649.9 L742.0,657.2 L745.3,661.0 L739.7,662.7 L743.6,671.4 L739.8,670.0 L738.4,672.0 L742.2,673.2 L743.3,676.8 L740.9,679.1 L743.6,683.6 L741.6,687.5 L743.3,686.4 L741.7,696.9 L740.3,698.5 L739.9,695.0 L738.5,698.5 L732.9,697.7 L733.9,696.3 L731.9,692.8 L729.2,697.9 L732.9,701.7 L730.2,708.8 L726.8,710.1 L729.1,704.2 L727.3,702.5 L726.2,708.3 L722.6,708.6 L722.7,710.8 L719.8,712.8 L720.5,714.6 L717.4,715.5 L717.5,717.9 L715.3,719.2 L707.3,716.4 L706.8,713.0 L713.5,711.2 L712.9,707.6 L710.8,706.7 L715.6,701.4 L715.1,698.3 L713.5,700.0 L718.5,693.6 L724.1,692.2 L726.2,688.3 L727.6,683.6 L724.5,679.3 L726.6,674.8 L725.3,667.5 L719.7,686.0 L718.3,686.4 L719.2,683.1 L714.3,687.0 L715.3,684.6 L712.4,683.5 L706.4,688.8 L701.0,685.8 L700.7,689.7 L696.9,686.2 L696.7,683.4 L695.4,686.9 L692.5,686.5 L693.6,681.6 L689.7,679.9 L684.3,672.5 L677.4,675.8 L666.2,674.2 L665.9,676.0 L662.1,676.9 L658.2,674.1 L658.4,676.0 L652.7,675.7 L650.5,673.7 L652.8,669.5 L649.8,662.9 L648.3,663.0 L652.2,659.5 L652.8,653.6 L647.8,651.5 L654.4,651.2 L653.7,645.8 L656.3,641.0 L656.5,633.3 L655.0,635.2 L652.8,634.0 L652.4,637.8 L650.4,639.3 L646.1,636.3 L645.8,637.9 L639.4,637.5 L632.5,632.3 L638.7,621.7 L647.1,613.4 L652.1,612.1 L652.0,609.0 L658.8,609.4 L661.1,601.9 L659.0,598.0 L664.0,591.9 L661.5,588.5 L665.3,587.8 L654.2,585.3 L662.3,576.2 L662.1,573.2 L659.6,572.1 L671.9,560.2 L671.5,552.2 L673.9,549.2 L672.6,547.7 L676.5,541.5 L673.3,535.4 L670.3,535.4 L669.3,529.1 L671.8,520.9 L680.8,512.9 L675.0,513.4 L664.5,518.5 L661.0,518.0 L660.3,520.2 L651.6,525.1 L650.6,521.1 L648.0,519.8 L648.0,524.1 L640.4,531.8 L641.5,533.3 L645.0,531.2 L650.6,532.2 L642.7,538.8 L649.6,537.0 L654.1,541.7 L656.6,549.4 L654.8,550.1 L654.9,554.0 L650.4,557.6 L652.2,560.0 L648.9,568.4 L646.4,572.0 L642.0,574.0 L645.9,585.9 L635.5,589.7 L636.8,592.0 L640.9,592.8 L637.5,595.7 L638.5,598.5 L635.7,599.0 L641.0,602.0 L637.2,604.9 L636.1,609.3 L632.6,610.3 L630.2,607.1 L631.1,611.5 L627.8,613.4 L624.1,608.7 L619.1,607.7 L621.4,610.0 L615.4,616.9 L617.2,619.4 L619.3,617.6 L617.0,623.3 L618.5,621.5 L621.3,628.2 L622.4,634.5 L620.7,636.3 L623.0,636.3 L621.4,639.4 L622.3,642.2 L625.6,643.2 L628.0,648.7 L622.7,656.2 L616.2,660.8 L599.0,665.5 L599.7,661.3 L597.5,664.0 L597.1,660.0 L595.2,661.3 L593.6,659.4 L596.2,666.4 L593.1,665.8 L587.3,673.4 L587.1,678.0 L576.2,685.1 L573.5,689.4 L573.2,695.4 Z M577.8,692.3 L577.8,692.3 Z M584.7,690.6 L588.1,683.9 L592.3,683.6 L590.8,688.7 L585.4,693.1 L584.7,690.6 Z M604.0,700.2 L620.4,694.1 L611.6,709.2 L610.0,719.6 L606.9,719.5 L604.7,716.3 L609.2,708.9 L608.0,703.7 L604.0,700.2 Z M616.6,702.1 L617.6,700.4 L616.6,702.1 Z M618.2,712.0 L618.4,708.4 L620.9,707.4 L624.7,700.8 L629.3,702.3 L629.5,706.1 L626.4,710.2 L627.0,712.4 L620.5,714.8 L618.2,712.0 Z M620.9,610.9 L620.9,610.9 Z M622.4,698.0 L624.6,692.9 L630.4,689.6 L627.8,698.5 L622.4,698.0 Z M625.2,615.2 L625.2,615.2 Z M626.3,683.7 L626.8,681.3 L630.4,681.1 L632.7,677.8 L638.3,680.3 L644.3,694.1 L635.6,689.0 L633.1,680.8 L629.5,685.5 L628.5,682.6 L626.3,683.7 Z M629.6,719.6 L634.0,716.5 L632.9,720.0 L629.6,719.6 Z M643.0,687.7 L644.0,684.2 L646.0,683.5 L668.7,687.3 L649.7,690.8 L643.0,687.7 Z M649.0,524.5 L649.0,524.5 Z M651.1,599.8 L654.0,593.2 L661.1,592.1 L656.6,599.3 L651.1,599.8 Z M654.0,525.0 L655.2,525.3 L654.0,525.0 Z M659.8,791.2 L661.4,789.7 L659.8,791.2 Z M661.6,791.3 L675.1,776.8 L676.0,772.7 L681.3,769.9 L682.1,766.7 L688.7,766.0 L687.2,768.3 L689.3,769.6 L690.6,774.4 L688.4,779.5 L680.8,784.1 L674.8,784.0 L669.1,787.8 L664.5,788.3 L661.6,791.3 Z M662.7,785.8 L665.8,776.1 L675.3,772.5 L675.0,776.3 L670.6,781.2 L664.2,787.2 L662.9,787.8 L662.7,785.8 Z M663.1,543.7 L663.1,543.7 Z M664.9,565.5 L664.9,565.5 Z M673.5,766.2 L674.9,763.0 L677.9,761.8 L674.9,764.1 L674.1,768.0 L673.5,766.2 Z M673.9,817.0 L675.4,811.1 L678.7,810.7 L682.0,813.2 L684.6,807.7 L697.4,811.4 L690.7,817.0 L673.9,817.0 Z M676.9,761.0 L676.9,761.0 Z M677.8,757.7 L677.8,757.7 Z M682.9,817.2 L684.3,816.7 L682.9,817.2 Z M683.9,783.1 L688.0,780.1 L686.8,783.7 L683.9,783.1 Z M688.5,873.7 L691.6,872.8 L690.1,874.6 L688.5,873.7 Z M689.5,859.8 L692.3,857.4 L695.7,860.8 L691.9,865.6 L689.5,859.8 Z M691.7,872.8 L691.7,872.8 Z M691.9,872.5 L691.9,872.5 Z M691.9,872.3 L693.6,870.6 L691.9,872.3 Z M692.2,870.5 L694.2,868.3 L692.2,870.5 Z M692.6,776.4 L700.5,775.1 L692.6,776.4 Z M693.4,872.7 L693.8,870.8 L693.4,872.7 Z M694.2,868.0 L694.2,868.0 Z M703.2,710.3 L703.2,708.7 L706.3,716.8 L710.3,719.5 L709.4,720.7 L719.9,729.6 L707.4,720.7 L703.2,710.3 Z M703.3,707.4 L704.5,704.7 L707.7,711.4 L713.5,711.1 L707.0,712.6 L707.0,716.3 L703.3,707.4 Z M703.6,713.6 L705.1,718.1 L703.6,713.6 Z M705.8,789.6 L706.2,787.4 L709.0,788.4 L705.8,789.6 Z M706.5,720.9 L716.3,728.2 L710.3,726.5 L706.5,720.9 Z M708.6,718.1 L708.6,718.1 Z M708.9,718.3 L708.9,718.3 Z M711.2,719.5 L711.2,719.5 Z M711.3,779.7 L711.3,779.7 Z M712.5,768.7 L716.1,763.9 L714.6,773.9 L713.1,773.8 L712.5,768.7 Z M713.3,720.1 L713.3,720.1 Z M714.7,720.0 L714.7,720.0 Z M715.5,761.2 L715.5,761.2 Z M721.1,725.4 L724.8,724.6 L723.4,727.8 L721.1,725.4 Z M721.2,727.8 L721.2,727.8 Z M723.0,838.6 L724.6,840.2 L723.0,838.6 Z M723.2,809.2 L725.6,807.0 L723.2,809.2 Z M723.6,734.4 L725.3,733.3 L723.6,734.4 Z M723.9,724.0 L723.9,724.0 Z M725.1,736.4 L725.1,736.4 Z M725.9,723.7 L725.9,723.7 Z M726.6,735.3 L726.6,735.3 Z M727.2,711.0 L728.3,711.8 L727.2,711.0 Z M730.5,728.2 L730.5,728.2 Z M731.0,728.0 L731.0,728.0 Z M731.5,728.0 L731.5,728.0 Z M732.6,723.3 L732.6,723.3 Z M734.8,723.4 L734.8,723.4 Z M735.1,722.8 L735.1,722.8 Z M735.4,719.7 L737.0,720.3 L735.4,719.7 Z M736.6,723.2 L739.1,718.8 L741.4,718.8 L739.2,723.2 L736.6,723.2 Z M737.7,723.4 L737.7,723.4 Z M740.6,650.6 L741.2,651.8 L740.6,650.6 Z M740.9,717.9 L742.4,718.3 L740.9,717.9 Z M741.1,716.7 L741.1,716.7 Z M741.7,717.1 L743.0,717.3 L741.7,717.1 Z M742.4,715.3 L742.4,715.3 Z M744.3,715.3 L745.2,714.3 L744.3,715.3 Z M744.3,709.8 L748.1,707.7 L745.8,713.1 L744.3,709.8 Z M745.3,714.0 L746.8,713.3 L745.3,714.0 Z M750.7,757.1 L753.9,755.8 L752.2,754.5 L754.2,753.3 L751.6,751.9 L754.2,751.5 L756.2,745.0 L761.2,741.8 L764.5,735.9 L769.3,734.2 L772.8,738.9 L778.9,742.3 L781.1,748.6 L779.3,755.8 L782.5,760.4 L779.6,762.6 L780.3,765.0 L774.6,768.2 L775.0,772.2 L773.1,774.8 L770.8,775.1 L764.1,771.0 L757.2,763.6 L752.9,764.3 L750.7,757.1 Z M760.5,725.7 L761.7,722.0 L767.1,725.1 L771.3,720.1 L775.4,727.1 L760.5,725.7 Z M760.6,726.5 L775.4,727.3 L775.8,731.5 L779.6,738.0 L778.7,739.7 L775.4,739.3 L769.8,733.5 L764.4,734.8 L764.1,731.0 L760.6,726.5 Z M775.6,725.2 L775.6,725.2 Z M779.6,756.1 L782.3,749.6 L786.6,750.4 L795.0,745.6 L793.4,753.4 L797.5,760.7 L783.5,756.1 L785.0,758.3 L782.6,760.8 L779.6,756.1 Z M781.6,680.3 L784.5,679.2 L782.9,684.9 L781.6,680.3 Z M782.9,685.2 L791.5,682.9 L796.1,683.9 L797.7,687.7 L791.0,694.1 L787.0,694.2 L785.1,685.8 L782.9,685.2 Z M783.1,678.6 L783.8,675.2 L788.6,671.9 L789.5,667.6 L793.3,671.5 L797.8,682.5 L794.5,684.6 L791.0,682.6 L794.4,683.9 L796.3,681.1 L791.5,672.4 L788.6,676.5 L783.1,678.6 Z M789.2,666.0 L797.0,669.9 L796.5,671.1 L793.9,672.7 L789.2,666.0 Z M789.4,696.7 L790.4,695.6 L789.7,698.5 L789.4,696.7 Z M794.2,752.2 L795.9,744.4 L794.8,754.1 L799.8,760.0 L796.1,758.4 L794.2,752.2 Z M795.5,761.5 L806.0,760.2 L809.7,763.6 L808.4,769.8 L803.7,770.8 L795.5,761.5 Z M798.0,673.2 L800.9,669.5 L800.9,672.1 L809.1,673.2 L808.2,668.0 L812.1,669.6 L810.3,666.1 L809.8,667.5 L808.1,665.4 L803.8,665.8 L807.7,664.0 L811.8,665.9 L814.3,664.8 L815.1,667.0 L819.1,666.3 L818.9,664.1 L820.6,663.2 L825.0,665.5 L822.9,668.2 L818.4,668.9 L815.5,672.6 L809.5,671.0 L809.8,675.8 L807.4,678.1 L805.3,678.4 L808.5,675.1 L800.0,674.6 L799.6,675.9 L798.0,673.2 Z M805.1,781.4 L809.0,776.9 L815.5,782.9 L814.8,787.5 L819.1,789.9 L816.3,792.8 L816.2,795.8 L811.8,793.2 L809.0,794.9 L806.1,791.9 L805.2,788.3 L807.3,785.8 L805.1,781.4 Z M813.9,664.7 L815.4,662.8 L818.8,664.0 L819.1,666.1 L815.0,666.8 L813.9,664.7 Z M815.1,787.0 L816.3,783.0 L820.1,782.6 L819.6,789.7 L815.1,787.0 Z M815.7,796.2 L816.5,793.0 L818.7,791.8 L819.9,795.9 L815.7,796.2 Z M818.4,797.2 L818.4,797.2 Z M820.4,662.3 L820.4,662.3 Z M667.3,936.8 L670.9,944.8 L671.9,940.9 L675.0,942.1 L679.7,940.2 L679.5,944.1 L680.4,942.7 L683.7,944.6 L685.5,948.4 L687.4,941.6 L681.9,936.0 L690.6,935.7 L688.5,935.6 L688.3,933.0 L687.9,935.4 L681.7,933.1 L678.9,937.6 L675.0,935.4 L675.1,936.7 L672.7,935.3 L667.3,936.8 Z M676.2,937.2 L676.2,937.2 Z M680.7,669.0 L682.4,672.2 L685.7,673.2 L692.0,670.8 L690.6,668.4 L686.3,670.1 L686.6,666.4 L685.1,668.9 L684.6,663.6 L683.7,666.9 L682.4,666.3 L683.0,670.5 L680.7,669.0 Z M713.4,861.5 L714.6,866.1 L719.2,869.9 L719.2,873.2 L720.6,871.1 L722.8,872.5 L721.3,874.3 L723.4,874.5 L721.1,877.1 L723.1,876.7 L724.0,881.1 L724.9,876.2 L727.6,877.3 L726.3,875.0 L730.0,876.8 L727.6,872.2 L725.3,872.4 L722.8,868.8 L724.7,867.1 L729.4,871.1 L727.5,868.3 L729.0,867.0 L726.9,867.5 L727.2,865.6 L724.6,864.3 L726.1,862.6 L729.4,864.6 L727.7,862.6 L728.7,861.3 L727.5,861.6 L729.8,858.7 L726.9,860.3 L726.4,856.7 L724.6,859.1 L720.1,858.2 L721.2,859.1 L717.3,862.7 L713.4,861.5 Z M721.9,867.8 L721.9,867.8 Z M728.9,698.3 L728.9,698.3 Z M741.3,660.1 L741.5,661.7 L745.2,661.1 L742.8,660.5 L742.2,657.3 L741.3,660.1 Z M742.3,658.5 L742.9,660.5 L744.5,659.9 L743.6,657.4 L742.3,658.5 Z M755.9,688.9 L756.3,687.3 L755.9,688.9 Z M757.8,686.5 L758.3,689.0 L761.4,688.2 L757.8,686.5 Z M760.6,684.6 L760.6,684.6 Z M761.1,684.7 L761.9,687.0 L761.1,684.7 Z M765.8,683.0 L765.8,683.0 Z M767.8,685.8 L767.8,685.8 Z M780.4,713.6 L784.1,718.6 L785.5,714.0 L788.3,716.2 L789.2,710.4 L792.6,712.7 L795.6,710.4 L795.3,717.2 L792.2,721.9 L794.8,722.0 L793.6,724.6 L795.5,731.1 L800.4,718.8 L799.2,715.8 L800.2,711.2 L804.1,712.7 L802.1,709.9 L806.2,704.8 L808.5,706.3 L807.2,709.6 L808.4,713.6 L809.8,713.3 L810.0,708.1 L813.3,711.8 L813.2,719.8 L815.5,721.3 L814.9,726.1 L818.6,725.0 L818.2,720.4 L824.4,718.5 L823.0,715.9 L820.1,717.3 L817.3,715.2 L817.0,713.3 L819.4,712.3 L817.9,711.1 L821.8,708.4 L819.1,708.8 L819.7,705.5 L817.0,708.8 L815.2,707.6 L817.4,705.8 L815.0,704.7 L815.8,702.6 L813.4,701.9 L811.8,704.5 L815.7,696.9 L813.8,695.3 L812.2,696.9 L812.4,693.8 L810.5,692.6 L808.2,696.2 L810.6,699.2 L808.6,700.3 L809.0,697.8 L807.8,699.6 L805.8,697.1 L804.7,701.0 L802.4,700.5 L803.5,703.1 L798.0,706.5 L796.7,706.4 L796.8,701.3 L794.2,706.4 L793.9,704.8 L789.1,703.1 L786.3,704.2 L781.4,707.8 L783.5,710.7 L780.4,713.6 Z M813.2,706.0 L814.1,704.2 L813.2,706.0 Z M815.6,707.3 L815.6,707.3 Z"/>
      <ellipse class="hypothesis" cx="651.2" cy="609.0" rx="41.8" ry="36.8"/>
      <path class="route rebel" d="M587.8,858.5 L613.5,738.6 L627.8,609.5 L612.3,523.5 L677.1,519.5 L769.7,409.1 L905.0,270.8" marker-end="url(#arrow-rebel)"/>
<path class="route return" d="M905.0,270.8 L789.3,399.5 L677.1,519.5 L651.2,609.0 L614.7,698.0 L610.4,800.5" marker-end="url(#arrow-return)"/>
<path class="route government" d="M487.9,1053.8 L556.5,1011.2 L571.7,936.9 L587.8,858.5" marker-end="url(#arrow-government)"/>
      <g class="place assembly located"><circle cx="487.9" cy="1053.8" r="7"/><text class="place-label" x="501.9" y="1083.8" text-anchor="start">樟树镇</text></g>
<g class="place city located"><circle cx="556.5" cy="1011.2" r="7"/><text class="place-label" x="571.5" y="999.2" text-anchor="start">丰城县</text></g>
<g class="place city located"><circle cx="587.8" cy="858.5" r="7"/><text class="place-label" x="603.8" y="890.5" text-anchor="start">南昌府</text></g>
<g class="place battle located-area"><circle cx="610.4" cy="800.5" r="7"/><text class="place-label" x="594.4" y="782.5" text-anchor="end">樵舍</text></g>
<g class="place battle located"><circle cx="614.7" cy="698.0" r="7"/><text class="place-label" x="628.7" y="729.0" text-anchor="start">吴城镇</text></g>
<g class="place city located"><circle cx="627.8" cy="609.5" r="7"/><text class="place-label" x="645.8" y="643.5" text-anchor="start">南康府</text></g>
<g class="place city located"><circle cx="612.3" cy="523.5" r="7"/><text class="place-label" x="592.3" y="507.5" text-anchor="end">九江府</text></g>
<g class="place city located"><circle cx="677.1" cy="519.5" r="7"/><text class="place-label" x="697.1" y="511.5" text-anchor="start">湖口县</text></g>
<g class="place reference located"><circle cx="801.5" cy="756.4" r="7"/><text class="place-label" x="817.5" y="744.4" text-anchor="start">饶州府</text></g>
<g class="place siege located"><circle cx="905.0" cy="270.8" r="7"/><text class="place-label" x="921.0" y="258.8" text-anchor="start">安庆府</text></g>
      <text class="small muted" x="627.2" y="603.0" text-anchor="end">阮子江？</text>
      <text class="tiny muted" x="627.2" y="628.0" text-anchor="end">“罂子口”异文候选区</text>
    </g>
  </svg>
  <text class="tiny muted" x="96" y="270">实线红：宁王军东下　　虚线红：解安庆后回师　　蓝线：王守仁军北上攻南昌</text>

  <text class="panel-title" x="72" y="1165">二　南昌—樵舍战区详图</text>
  <rect class="frame" x="72" y="1182" width="804" height="650"/>
  <svg x="72" y="1182" width="804" height="650" viewBox="0 0 804 650" overflow="hidden">
    <rect width="804" height="650" fill="#f8f4ea"/>
    <g transform="translate(-72 -1182)">
      <path class="lake" d="M353.0,983.3 L357.0,990.2 L359.5,971.8 L366.9,970.8 L374.4,987.8 L360.9,1002.2 L370.3,1005.5 L376.7,999.3 L373.9,993.1 L385.5,973.8 L374.7,976.8 L376.8,965.2 L384.9,964.8 L378.5,957.1 L392.3,941.2 L388.8,944.0 L395.9,945.2 L384.8,969.0 L387.6,982.3 L398.6,977.2 L428.5,989.3 L413.9,985.5 L412.2,999.0 L405.9,1001.1 L410.8,1008.5 L398.3,1014.0 L405.2,1048.5 L436.3,1063.7 L420.2,1087.5 L443.8,1097.7 L444.7,1109.4 L455.5,1113.9 L440.9,1134.7 L463.4,1132.3 L465.0,1118.8 L482.5,1123.6 L509.2,1111.1 L522.3,1110.4 L528.8,1122.4 L536.9,1122.9 L542.1,1119.9 L539.5,1106.8 L563.9,1099.9 L585.0,1117.2 L584.7,1127.5 L600.7,1132.6 L615.7,1157.7 L635.9,1140.8 L657.4,1145.6 L663.3,1174.4 L659.9,1190.9 L687.1,1219.1 L680.6,1235.9 L682.6,1257.6 L688.0,1258.7 L692.2,1220.0 L700.7,1214.0 L741.7,1213.1 L749.1,1219.5 L732.7,1246.8 L731.8,1272.1 L702.5,1281.2 L707.1,1280.4 L695.7,1295.3 L689.8,1331.6 L679.4,1345.0 L684.8,1350.2 L700.3,1334.3 L736.5,1319.0 L779.7,1317.7 L784.0,1326.5 L771.5,1354.2 L740.9,1363.2 L731.0,1380.0 L738.6,1398.7 L731.5,1402.3 L734.7,1429.1 L728.6,1443.6 L803.2,1440.1 L806.2,1460.5 L826.5,1459.3 L848.2,1484.3 L851.3,1511.1 L814.8,1533.3 L821.1,1555.0 L817.4,1568.5 L805.8,1589.4 L792.4,1597.5 L796.9,1620.6 L807.1,1630.6 L799.4,1651.0 L784.4,1657.5 L790.6,1667.7 L839.8,1650.6 L851.7,1637.0 L874.8,1635.3 L874.5,1621.8 L885.0,1618.8 L878.1,1594.7 L891.1,1591.6 L878.9,1584.9 L882.6,1573.1 L871.0,1570.0 L871.4,1561.1 L880.3,1561.0 L911.3,1588.9 L916.7,1586.6 L912.5,1566.7 L906.6,1572.3 L904.1,1559.3 L897.3,1558.2 L900.9,1553.7 L891.0,1552.8 L897.9,1530.6 L903.1,1526.2 L942.6,1535.1 L913.2,1509.6 L920.8,1498.5 L916.9,1484.3 L932.7,1483.8 L918.0,1478.0 L911.7,1458.4 L919.1,1445.3 L913.9,1431.3 L928.1,1418.5 L939.1,1364.5 L965.7,1318.8 L1056.7,1303.0 L1138.4,1335.2 L1148.7,1345.0 L1157.2,1372.3 L1170.8,1334.7 L1179.9,1326.6 L1202.0,1326.3 L1228.7,1357.2 L1226.8,1377.4 L1258.2,1385.4 L1276.5,1415.7 L1287.8,1421.4 L1278.6,1403.3 L1287.1,1390.7 L1280.1,1377.9 L1287.4,1360.8 L1282.9,1345.7 L1287.6,1311.1 L1264.5,1303.8 L1250.3,1284.8 L1244.7,1268.6 L1252.2,1240.4 L1230.5,1223.0 L1210.5,1226.4 L1196.9,1217.1 L1190.5,1198.3 L1195.6,1167.8 L1154.8,1186.2 L1142.0,1179.7 L1137.5,1143.1 L1119.9,1113.8 L1120.6,1096.0 L1096.4,1055.1 L1115.8,1047.6 L1158.5,1012.5 L1186.1,1002.8 L1206.5,957.3 L1223.5,949.8 L1224.0,940.6 L1248.2,910.9 L1247.3,892.2 L1270.3,898.3 L1281.3,884.6 L1300.4,880.5 L1317.7,856.3 L1322.1,833.5 L1319.6,849.3 L1305.6,869.3 L1289.8,862.9 L1291.0,839.4 L1282.4,864.5 L1273.7,865.1 L1274.4,857.4 L1255.7,861.8 L1254.0,868.1 L1247.7,860.8 L1237.0,867.1 L1217.1,861.9 L1210.0,888.9 L1168.4,872.5 L1165.9,893.9 L1122.6,922.8 L1121.8,913.1 L1129.2,912.5 L1125.6,902.5 L1116.5,904.6 L1104.0,894.3 L1111.0,909.3 L1108.3,916.9 L1101.8,915.9 L1108.6,930.2 L1099.6,947.2 L1081.7,958.3 L1082.8,934.0 L1075.7,936.8 L1067.1,917.9 L1070.2,956.0 L1062.6,966.4 L1044.3,967.0 L1033.5,918.7 L1037.9,902.9 L1029.2,904.4 L1027.0,879.8 L1021.2,888.3 L1015.0,872.6 L1006.1,869.7 L1011.7,849.7 L1001.9,845.8 L995.3,821.9 L985.2,812.2 L991.8,839.7 L1004.1,854.1 L983.0,860.4 L997.7,893.2 L983.2,887.7 L978.0,895.4 L992.3,900.1 L996.5,913.4 L987.6,922.2 L997.7,939.2 L990.0,953.7 L996.5,949.8 L990.5,989.0 L985.4,995.1 L983.9,982.0 L978.3,995.2 L957.2,992.2 L960.9,986.9 L953.4,973.7 L943.2,992.8 L957.3,1007.2 L947.1,1033.9 L934.2,1038.6 L942.8,1016.6 L936.2,1010.3 L931.8,1031.9 L918.2,1033.2 L918.8,1041.3 L907.8,1049.0 L910.3,1055.8 L898.6,1059.2 L898.8,1068.1 L890.7,1072.9 L860.4,1062.5 L858.6,1049.7 L883.8,1042.9 L881.6,1029.2 L873.5,1025.9 L891.9,1006.1 L890.1,994.3 L883.9,1000.8 L902.9,976.7 L923.9,971.4 L931.8,956.6 L937.2,939.1 L925.6,922.8 L933.3,906.0 L928.5,878.4 L907.3,948.1 L901.8,949.6 L905.4,937.1 L886.8,951.8 L890.8,942.7 L879.8,938.8 L857.1,958.5 L836.6,947.2 L835.3,962.0 L821.3,948.6 L820.4,938.2 L815.4,951.5 L804.5,949.9 L808.5,931.5 L794.0,925.1 L773.3,897.2 L747.2,909.9 L704.9,903.5 L703.8,910.5 L689.3,913.9 L674.5,903.3 L675.3,910.6 L654.0,909.3 L645.7,901.8 L654.2,885.8 L642.9,861.0 L637.3,861.4 L652.0,848.4 L654.2,826.0 L635.2,818.3 L660.2,817.0 L657.8,796.6 L667.7,778.5 L668.1,749.8 L662.6,756.8 L654.3,752.2 L652.8,766.5 L645.0,772.3 L629.1,761.2 L627.8,767.0 L603.6,765.6 L577.4,745.8 L601.1,705.9 L632.7,674.7 L651.8,669.9 L651.3,658.3 L677.0,659.6 L685.6,631.7 L677.6,616.7 L696.7,593.8 L687.1,581.0 L701.5,578.4 L659.5,569.3 L690.3,535.0 L689.4,523.4 L679.9,519.5 L726.6,474.8 L725.1,444.6 L733.9,433.4 L729.2,427.5 L744.1,404.4 L731.8,381.3 L720.5,381.2 L716.8,357.5 L726.3,326.8 L760.1,296.7 L738.3,298.5 L698.5,317.8 L685.2,315.7 L682.8,324.1 L649.8,342.7 L645.8,327.3 L636.2,322.8 L636.3,338.7 L607.2,367.7 L611.6,373.6 L624.8,365.6 L646.0,369.4 L616.1,394.0 L642.2,387.2 L659.2,405.0 L668.5,434.0 L661.9,436.6 L662.3,451.3 L645.2,464.9 L652.1,473.9 L639.5,505.4 L630.0,519.2 L613.5,526.5 L628.3,571.4 L588.9,585.6 L593.7,594.4 L609.4,597.2 L596.5,608.2 L600.3,618.9 L589.6,620.5 L609.8,631.9 L595.3,642.9 L591.2,659.6 L577.8,663.2 L568.7,651.2 L572.0,667.7 L559.8,675.0 L545.9,657.2 L526.9,653.4 L535.6,662.0 L512.6,688.2 L519.7,697.6 L527.6,690.5 L519.0,712.0 L524.5,705.4 L535.1,730.7 L539.3,754.1 L533.0,760.9 L541.5,761.0 L535.4,772.6 L538.8,783.1 L551.4,786.9 L560.3,807.6 L540.6,836.1 L515.8,853.2 L450.7,870.8 L453.4,855.1 L445.0,865.3 L443.4,850.2 L436.5,855.1 L430.3,848.0 L440.2,874.3 L428.4,871.9 L406.4,900.5 L405.6,917.9 L364.6,944.8 L354.2,960.8 L353.0,983.3 Z M370.4,971.7 L370.4,971.7 Z M396.5,965.4 L409.6,940.3 L425.3,939.1 L419.8,958.2 L399.5,974.7 L396.5,965.4 Z M469.7,1001.6 L531.8,978.4 L498.3,1035.3 L492.4,1074.6 L480.8,1074.1 L472.5,1061.9 L489.3,1034.3 L484.6,1014.8 L469.7,1001.6 Z M517.5,1008.8 L521.0,1002.3 L517.5,1008.8 Z M523.3,1046.0 L524.1,1032.4 L533.8,1028.7 L548.1,1003.9 L565.2,1009.4 L566.1,1023.6 L554.2,1039.0 L556.8,1047.3 L532.2,1056.5 L523.3,1046.0 Z M533.5,665.4 L533.5,665.4 Z M539.5,993.2 L547.8,974.0 L569.6,961.7 L559.6,995.1 L539.5,993.2 Z M549.8,681.8 L549.8,681.8 Z M554.0,939.6 L556.1,930.4 L569.4,929.8 L578.3,917.3 L599.4,926.5 L622.1,978.6 L589.3,959.4 L579.6,928.3 L566.3,946.0 L562.5,935.3 L554.0,939.6 Z M566.6,1074.4 L583.1,1062.7 L579.1,1076.0 L566.6,1074.4 Z M617.2,954.3 L620.8,941.3 L628.5,938.6 L714.3,953.0 L642.6,966.0 L617.2,954.3 Z M639.8,340.4 L639.8,340.4 Z M647.9,623.8 L658.7,598.8 L685.5,594.8 L668.8,621.8 L647.9,623.8 Z M658.8,342.2 L663.5,343.2 L658.8,342.2 Z M680.8,1344.0 L686.8,1338.3 L680.8,1344.0 Z M687.7,1344.3 L738.7,1289.9 L742.1,1274.2 L761.9,1263.8 L765.3,1251.9 L790.0,1249.0 L784.6,1257.9 L792.3,1262.8 L797.3,1280.8 L789.0,1300.1 L760.2,1317.3 L737.4,1317.0 L716.0,1331.3 L698.6,1333.0 L687.7,1344.3 Z M691.9,1323.6 L703.3,1287.0 L739.3,1273.6 L738.1,1288.0 L721.6,1306.3 L697.5,1329.0 L692.4,1331.0 L691.9,1323.6 Z M693.2,412.4 L693.2,412.4 Z M700.2,494.7 L700.2,494.7 Z M732.6,1250.0 L737.9,1237.7 L749.1,1233.2 L738.0,1241.9 L734.7,1256.5 L732.6,1250.0 Z M734.1,1440.9 L739.7,1418.8 L752.1,1417.3 L764.6,1426.9 L774.6,1406.2 L822.9,1420.0 L797.8,1441.2 L734.1,1440.9 Z M745.6,1230.1 L745.6,1230.1 Z M748.7,1217.8 L748.7,1217.8 Z M768.1,1441.7 L773.5,1440.1 L768.1,1441.7 Z M771.9,1313.4 L787.6,1302.0 L782.7,1315.8 L771.9,1313.4 Z M789.3,1654.6 L800.9,1651.1 L795.4,1657.9 L789.3,1654.6 Z M792.9,1602.3 L803.7,1593.2 L816.4,1605.9 L802.3,1624.0 L792.9,1602.3 Z M801.4,1650.9 L801.4,1650.9 Z M802.0,1649.8 L802.0,1649.8 Z M802.2,1649.1 L808.4,1642.9 L802.2,1649.1 Z M803.2,1642.3 L810.8,1634.1 L803.2,1642.3 Z M804.8,1288.3 L834.8,1283.3 L804.8,1288.3 Z M808.0,1650.6 L809.3,1643.4 L808.0,1650.6 Z M810.9,1632.9 L810.9,1632.9 Z M844.8,1039.3 L845.1,1033.4 L856.5,1063.9 L871.6,1074.1 L868.4,1078.7 L908.3,1112.1 L860.9,1078.6 L844.8,1039.3 Z M845.3,1028.8 L849.8,1018.6 L862.0,1043.5 L883.7,1042.5 L859.3,1048.2 L859.2,1062.1 L845.3,1028.8 Z M846.4,1052.1 L852.2,1068.8 L846.4,1052.1 Z M854.8,1337.9 L856.2,1329.5 L867.0,1333.6 L854.8,1337.9 Z M857.4,1079.3 L894.3,1106.9 L871.9,1100.5 L857.4,1079.3 Z M865.3,1068.9 L865.3,1068.9 Z M866.7,1069.5 L866.7,1069.5 Z M875.1,1074.2 L875.1,1074.2 Z M875.6,1300.8 L875.6,1300.8 Z M880.1,1259.5 L893.6,1241.2 L887.9,1278.9 L882.3,1278.5 L880.1,1259.5 Z M883.1,1076.3 L883.1,1076.3 Z M888.3,1076.0 L888.3,1076.0 Z M891.6,1231.0 L891.6,1231.0 Z M912.8,1096.3 L926.7,1093.5 L921.2,1105.4 L912.8,1096.3 Z M913.0,1105.5 L913.0,1105.5 Z M919.7,1522.5 L925.9,1528.4 L919.7,1522.5 Z M920.7,1411.9 L929.6,1403.3 L920.7,1411.9 Z M922.3,1130.1 L928.6,1126.1 L922.3,1130.1 Z M923.1,1091.2 L923.1,1091.2 Z M927.6,1137.8 L927.6,1137.8 Z M930.9,1090.1 L930.9,1090.1 Z M933.5,1133.7 L933.5,1133.7 Z M935.6,1042.2 L939.7,1045.0 L935.6,1042.2 Z M948.2,1106.7 L948.2,1106.7 Z M950.1,1106.3 L950.1,1106.3 Z M952.0,1106.0 L952.0,1106.0 Z M956.1,1088.5 L956.1,1088.5 Z M964.6,1088.8 L964.6,1088.8 Z M965.6,1086.5 L965.6,1086.5 Z M966.6,1074.9 L972.6,1077.1 L966.6,1074.9 Z M971.3,1088.1 L980.7,1071.6 L989.4,1071.7 L981.0,1088.1 L971.3,1088.1 Z M975.5,1088.7 L975.5,1088.7 Z M986.4,814.9 L988.6,819.2 L986.4,814.9 Z M987.6,1068.2 L993.2,1069.6 L987.6,1068.2 Z M988.5,1063.5 L988.5,1063.5 Z M990.4,1065.1 L995.6,1065.9 L990.4,1065.1 Z M993.3,1058.3 L993.3,1058.3 Z M1000.4,1058.2 L1003.8,1054.6 L1000.4,1058.2 Z M1000.4,1037.6 L1014.9,1029.9 L1005.9,1050.2 L1000.4,1037.6 Z M1004.3,1053.3 L1009.8,1050.7 L1004.3,1053.3 Z M1024.4,1215.7 L1036.8,1210.8 L1030.2,1206.0 L1037.8,1201.3 L1027.8,1196.0 L1037.8,1194.7 L1045.2,1170.2 L1064.3,1158.2 L1076.9,1136.0 L1094.8,1129.3 L1108.3,1147.1 L1131.1,1159.9 L1139.5,1183.6 L1132.8,1210.7 L1145.0,1228.2 L1133.8,1236.2 L1136.4,1245.5 L1114.9,1257.5 L1116.4,1272.6 L1109.4,1282.1 L1100.7,1283.6 L1075.1,1268.1 L1049.0,1239.9 L1032.9,1242.6 L1024.4,1215.7 Z M1061.6,1097.3 L1066.1,1083.6 L1086.6,1095.1 L1102.4,1076.4 L1118.0,1102.6 L1061.6,1097.3 Z M1062.0,1100.4 L1117.9,1103.5 L1119.5,1119.4 L1134.0,1143.9 L1130.5,1150.1 L1118.2,1148.7 L1096.9,1126.7 L1076.5,1131.9 L1075.2,1117.2 L1062.0,1100.4 Z M1118.8,1095.4 L1118.8,1095.4 Z M1133.8,1211.7 L1144.3,1187.6 L1160.3,1190.4 L1192.2,1172.2 L1186.1,1201.8 L1201.6,1229.3 L1148.7,1211.9 L1154.4,1220.1 L1145.1,1229.6 L1133.8,1211.7 Z M1141.6,926.7 L1152.4,922.4 L1146.5,944.0 L1141.6,926.7 Z M1146.4,945.0 L1178.8,936.3 L1196.3,940.3 L1202.6,954.5 L1176.9,978.5 L1161.8,978.8 L1154.7,947.5 L1146.4,945.0 Z M1147.0,920.1 L1149.8,907.4 L1168.1,894.8 L1171.4,878.8 L1185.8,893.5 L1202.7,934.7 L1190.2,942.7 L1177.1,935.4 L1190.0,940.2 L1197.1,929.7 L1179.0,897.0 L1167.8,912.4 L1147.0,920.1 Z M1170.4,872.8 L1199.7,887.3 L1197.7,892.2 L1187.9,898.2 L1170.4,872.8 Z M1170.9,988.3 L1174.6,984.0 L1172.2,995.2 L1170.9,988.3 Z M1189.2,1197.2 L1195.5,1167.9 L1191.4,1204.3 L1210.4,1226.4 L1196.2,1220.4 L1189.2,1197.2 Z M1194.1,1232.0 L1233.6,1227.3 L1247.9,1239.9 L1242.7,1263.5 L1225.0,1267.2 L1194.1,1232.0 Z M1203.6,900.1 L1214.3,885.8 L1214.6,895.9 L1245.4,900.1 L1242.0,880.4 L1256.7,886.3 L1249.9,873.2 L1248.0,878.5 L1241.9,870.5 L1225.6,872.1 L1240.0,865.3 L1255.8,872.6 L1265.0,868.3 L1268.1,876.5 L1283.5,873.8 L1282.4,865.8 L1288.9,862.4 L1305.8,871.0 L1297.6,881.0 L1280.7,883.8 L1269.7,897.7 L1246.9,891.5 L1248.0,909.7 L1239.1,918.5 L1231.0,919.4 L1243.2,906.9 L1211.0,905.1 L1209.6,910.1 L1203.6,900.1 Z M1230.2,1307.0 L1245.3,1290.0 L1269.6,1312.7 L1267.0,1329.9 L1283.4,1339.3 L1272.7,1350.0 L1272.5,1361.1 L1255.9,1351.3 L1245.2,1357.8 L1234.0,1346.7 L1230.8,1332.9 L1238.7,1323.8 L1230.2,1307.0 Z M1263.5,868.1 L1269.2,860.8 L1282.1,865.3 L1283.3,873.2 L1267.9,876.0 L1263.5,868.1 Z M1268.2,1328.2 L1272.6,1313.1 L1287.2,1311.7 L1285.2,1338.1 L1268.2,1328.2 Z M1270.6,1362.8 L1273.4,1350.6 L1281.9,1346.1 L1286.3,1361.6 L1270.6,1362.8 Z M1280.7,1366.7 L1280.7,1366.7 Z M1288.2,858.8 L1288.2,858.8 Z M708.9,1891.7 L722.6,1922.0 L726.6,1907.2 L738.2,1912.0 L755.9,1904.7 L755.3,1919.5 L758.7,1914.2 L771.2,1921.4 L777.9,1935.5 L785.2,1910.0 L764.4,1889.0 L797.2,1887.9 L789.3,1887.5 L788.4,1877.6 L787.0,1886.6 L763.6,1878.0 L752.9,1894.8 L738.1,1886.6 L738.6,1891.6 L729.4,1886.4 L708.9,1891.7 Z M742.8,1893.6 L742.8,1893.6 Z M759.7,884.1 L766.4,896.2 L778.6,900.0 L802.4,890.8 L797.3,881.8 L781.0,888.3 L782.3,874.2 L776.4,883.6 L774.6,863.8 L771.2,876.2 L766.4,874.0 L768.6,889.6 L759.7,884.1 Z M883.6,1608.5 L888.0,1625.9 L905.3,1640.1 L905.5,1652.7 L910.6,1644.5 L919.2,1649.9 L913.4,1656.7 L921.4,1657.5 L912.5,1667.3 L920.3,1665.8 L923.5,1682.4 L927.0,1663.8 L937.1,1667.9 L932.5,1659.2 L946.5,1666.0 L937.3,1648.9 L928.3,1649.5 L919.0,1635.8 L926.3,1629.5 L944.0,1644.7 L937.0,1634.1 L942.7,1629.3 L934.7,1631.1 L935.9,1623.8 L926.0,1619.2 L931.5,1612.8 L944.0,1620.1 L937.4,1612.8 L941.2,1607.8 L936.7,1609.0 L945.5,1598.1 L934.4,1604.0 L932.5,1590.3 L925.8,1599.5 L908.8,1596.0 L913.1,1599.5 L898.1,1612.9 L883.6,1608.5 Z M915.8,1632.2 L915.8,1632.2 Z M942.0,994.4 L942.0,994.4 Z M988.9,850.7 L989.9,856.6 L1003.8,854.2 L994.8,852.1 L992.4,840.0 L988.9,850.7 Z M992.7,844.5 L995.0,852.1 L1001.0,849.9 L997.6,840.3 L992.7,844.5 Z M1044.4,959.2 L1045.7,953.1 L1044.4,959.2 Z M1051.3,949.9 L1053.3,959.4 L1065.1,956.3 L1051.3,949.9 Z M1061.9,942.6 L1061.9,942.6 Z M1064.0,943.1 L1067.0,952.0 L1064.0,943.1 Z M1081.8,936.8 L1081.8,936.8 Z M1089.4,947.5 L1089.4,947.5 Z M1137.1,1052.0 L1151.0,1070.6 L1156.2,1053.3 L1166.6,1061.8 L1170.1,1039.9 L1183.2,1048.4 L1194.5,1039.7 L1193.3,1065.3 L1181.5,1083.1 L1191.5,1083.5 L1186.8,1093.3 L1194.1,1117.8 L1212.8,1071.4 L1208.2,1060.3 L1211.9,1042.7 L1226.5,1048.4 L1218.9,1038.2 L1234.4,1018.9 L1243.1,1024.4 L1238.5,1036.7 L1243.0,1051.9 L1248.3,1050.7 L1249.1,1031.3 L1261.3,1045.3 L1261.1,1075.2 L1269.8,1081.0 L1267.3,1099.2 L1281.6,1095.0 L1279.8,1077.6 L1303.3,1070.5 L1298.2,1060.7 L1287.2,1065.7 L1276.4,1057.8 L1275.5,1050.6 L1284.5,1046.9 L1278.9,1042.3 L1293.7,1032.2 L1283.4,1033.8 L1285.5,1021.5 L1275.4,1034.0 L1268.6,1029.5 L1277.0,1022.5 L1267.8,1018.4 L1270.8,1010.7 L1261.7,1007.8 L1255.9,1017.8 L1270.6,989.1 L1263.4,983.0 L1257.4,989.0 L1258.1,977.6 L1250.8,972.8 L1242.1,986.6 L1251.2,997.8 L1243.6,1001.7 L1245.1,992.4 L1240.5,999.3 L1233.1,989.7 L1229.0,1004.6 L1220.2,1002.6 L1224.5,1012.4 L1203.6,1025.1 L1198.5,1024.8 L1198.8,1005.6 L1189.1,1024.9 L1188.1,1018.6 L1169.8,1012.3 L1159.4,1016.6 L1140.8,1030.2 L1148.8,1040.9 L1137.1,1052.0 Z M1260.9,1023.2 L1264.5,1016.7 L1260.9,1023.2 Z M1270.2,1028.1 L1270.2,1028.1 Z"/>
      <ellipse class="range" cx="574.3" cy="1597.3" rx="110.8" ry="108.3"/>
      <ellipse class="range" cx="493.9" cy="1378.9" rx="63.3" ry="60.2"/>
      <path class="sequence" d="M532.0,1501.0 Q554.9,1461.9 505.7,1422.7" marker-end="url(#arrow-sequence)"/>
      <g class="place city located"><circle cx="408.3" cy="1597.4" r="7"/><text class="place-label detail-label" x="424.3" y="1629.4" text-anchor="start">南昌府</text></g>
<g class="place battle located-area"><circle cx="493.9" cy="1378.9" r="7"/><text class="place-label detail-label" x="477.9" y="1360.9" text-anchor="end">樵舍</text></g>
      <circle class="battle-number" cx="574.3" cy="1597.3" r="17"/><text class="battle-number-text" x="574.3" y="1597.3">1</text>
      <circle class="battle-number" cx="542.9" cy="1449.9" r="17"/><text class="battle-number-text" x="542.9" y="1449.9">2</text>
      <circle class="battle-number" cx="493.9" cy="1378.9" r="17"/><text class="battle-number-text" x="493.9" y="1378.9">3</text>
      <text class="small" x="600.3" y="1604.3">黄家渡范围</text>
      <text class="small" x="568.9" y="1456.9">八字脑：只示次序</text>
      <text class="small" x="521.9" y="1385.9">樵舍战场水域未定</text>
    </g>
  </svg>
  <text class="tiny muted" x="88" y="1802">斜线范围表示史料检索区或战场可能水域，不表示现代行政边界。</text>

  <rect class="frame" x="916" y="1182" width="412" height="650"/>
  <text class="panel-title" x="944" y="1230">定位等级</text>
  <circle cx="955" cy="1280" r="7" fill="#f8f4ea" stroke="#332d27" stroke-width="3"/><text class="small" x="980" y="1287">实点：CHGIS 坐标</text>
  <rect x="944" y="1318" width="24" height="24" fill="url(#range-hatch)" stroke="#a45a3a" stroke-width="2"/><text class="small" x="980" y="1338">斜线：范围定位</text>
  <rect x="944" y="1368" width="24" height="24" fill="url(#hypothesis-hatch)" stroke="#826d91" stroke-width="2"/><text class="small" x="980" y="1388">紫线：异文假说</text>
  <text class="panel-title" x="944" y="1454">三场战斗</text>
  <text class="small" x="944" y="1500">1　七月二十四　黄家渡</text>
  <text class="small" x="944" y="1542">2　败后退保　　八字脑</text>
  <text class="small" x="944" y="1584">3　二十五至二十六　樵舍</text>
  <text class="panel-title" x="944" y="1652">制图边界</text>
  <text class="tiny muted" x="944" y="1690"><tspan x="944" dy="0">黄家渡：南昌府东三十里、通余干，</tspan><tspan x="944" dy="25">不对应任何未经证实的现代同名村。</tspan><tspan x="944" dy="32">八字脑：同名与路线冲突，故不落点。</tspan><tspan x="944" dy="32">樵舍：镇名可定位，古河槽与火攻水面</tspan><tspan x="944" dy="25">仍不能精确到坐标。</tspan></text>

  <line x1="72" y1="1880" x2="1328" y2="1880" stroke="#8c806f" stroke-width="1.5"/>
  <text class="tiny muted" x="72" y="1915">历史地名与坐标：CHGIS（复旦大学—哈佛大学）；战役次序：《擒获宸濠捷音疏》；方位：《读史方舆纪要》。</text>
  <text class="tiny muted" x="72" y="1943">现代湖岸参照：© OpenStreetMap contributors，ODbL 1.0。现代岸线仅作空间参照，不代表1519年湖岸。</text>
  <text class="tiny muted" x="1328" y="1943" text-anchor="end">制图：42天项目｜2026-07-16｜WGS84</text>
</svg>